<svg width="19" height="19" viewBox="0 0 19 19" fill="none" xmlns="http://www.w3.org/2000/svg">
<path d="M16.7917 0.125C17.3442 0.125 17.8741 0.344493 18.2648 0.735194C18.6555 1.12589 18.875 1.6558 18.875 2.20833V16.7917C18.875 17.3442 18.6555 17.8741 18.2648 18.2648C17.8741 18.6555 17.3442 18.875 16.7917 18.875H2.20833C1.6558 18.875 1.12589 18.6555 0.735194 18.2648C0.344493 17.8741 0.125 17.3442 0.125 16.7917V2.20833C0.125 1.6558 0.344493 1.12589 0.735194 0.735194C1.12589 0.344493 1.6558 0.125 2.20833 0.125H16.7917ZM16.2708 16.2708V10.75C16.2708 9.84937 15.9131 8.98563 15.2762 8.34878C14.6394 7.71194 13.7756 7.35417 12.875 7.35417C11.9896 7.35417 10.9583 7.89583 10.4583 8.70833V7.55208H7.55208V16.2708H10.4583V11.1354C10.4583 10.3333 11.1042 9.67708 11.9062 9.67708C12.293 9.67708 12.664 9.83073 12.9374 10.1042C13.2109 10.3777 13.3646 10.7486 13.3646 11.1354V16.2708H16.2708ZM4.16667 5.91667C4.6308 5.91667 5.07591 5.73229 5.4041 5.4041C5.73229 5.07591 5.91667 4.6308 5.91667 4.16667C5.91667 3.19792 5.13542 2.40625 4.16667 2.40625C3.69978 2.40625 3.25201 2.59172 2.92186 2.92186C2.59172 3.25201 2.40625 3.69978 2.40625 4.16667C2.40625 5.13542 3.19792 5.91667 4.16667 5.91667ZM5.61458 16.2708V7.55208H2.72917V16.2708H5.61458Z" fill="black"/>
</svg>
