<svg width="31" height="32" viewBox="0 0 31 32" fill="none" xmlns="http://www.w3.org/2000/svg">
<path d="M8.85024 1.73799C8.95163 0.970216 9.84967 0.604113 10.4589 1.08217L14.8827 4.55324C15.2451 4.8376 15.7549 4.8376 16.1173 4.55324L20.5411 1.08217C21.1503 0.604113 22.0484 0.970216 22.1498 1.73799L22.91 7.49489C22.9688 7.94018 23.3172 8.29163 23.762 8.35422L29.3403 9.13923C30.09 9.24474 30.4551 10.1128 30.0061 10.7224L26.5565 15.407C26.2968 15.7597 26.2968 16.2403 26.5565 16.593L30.0062 21.2777C30.4551 21.8874 30.09 22.7554 29.3402 22.8609L23.762 23.6458C23.3172 23.7084 22.9687 24.0598 22.9099 24.5051L22.1498 30.262C22.0484 31.0298 21.1503 31.3959 20.5411 30.9178L16.1173 27.4468C15.7549 27.1624 15.2451 27.1624 14.8827 27.4468L10.4589 30.9178C9.84967 31.3959 8.95163 31.0298 8.85025 30.262L8.09005 24.5051C8.03125 24.0598 7.68277 23.7084 7.23799 23.6458L1.65975 22.8609C0.910024 22.7554 0.544916 21.8874 0.993847 21.2777L4.44354 16.593C4.70323 16.2403 4.70323 15.7597 4.44354 15.407L0.993846 10.7223C0.544915 10.1126 0.910025 9.24459 1.65975 9.1391L7.23799 8.35421C7.68277 8.29163 8.03125 7.94017 8.09005 7.49488L8.85024 1.73799Z" fill="black"/>
</svg>
